<svg width="35" height="35" viewBox="0 0 35 35" fill="none" xmlns="http://www.w3.org/2000/svg">
<path d="M31.0386 12.0689L22.3604 10.8076L18.481 2.94288C18.375 2.72755 18.2007 2.55324 17.9854 2.44728C17.4453 2.18068 16.7891 2.40284 16.519 2.94288L12.6396 10.8076L3.96142 12.0689C3.72216 12.103 3.50341 12.2158 3.33593 12.3867C3.13346 12.5948 3.02189 12.8748 3.02573 13.1652C3.02958 13.4555 3.14853 13.7324 3.35644 13.9351L9.63525 20.0567L8.15185 28.7007C8.11707 28.9018 8.13932 29.1086 8.21608 29.2977C8.29285 29.4867 8.42106 29.6505 8.58617 29.7704C8.75128 29.8904 8.94669 29.9616 9.15024 29.9761C9.35379 29.9907 9.55733 29.9478 9.73779 29.8526L17.5 25.7715L25.2622 29.8526C25.4741 29.9654 25.7202 30.003 25.9561 29.9619C26.5508 29.8594 26.9507 29.2954 26.8482 28.7007L25.3648 20.0567L31.6436 13.9351C31.8145 13.7676 31.9273 13.5488 31.9614 13.3096C32.0537 12.7114 31.6367 12.1577 31.0386 12.0689V12.0689Z" fill="#F7C850"/>
</svg>
