<svg width="31" height="30" viewBox="0 0 31 30" fill="none" xmlns="http://www.w3.org/2000/svg">
<path d="M25.3724 27.5C26.4079 27.5 27.2474 26.6605 27.2474 25.625C27.2474 24.5895 26.4079 23.75 25.3724 23.75C24.3369 23.75 23.4974 24.5895 23.4974 25.625C23.4974 26.6605 24.3369 27.5 25.3724 27.5Z" fill="#FEFEFE" stroke="#FEFEFE" stroke-width="1.5" stroke-linecap="round" stroke-linejoin="round"/>
<path d="M12.8724 27.5C13.9079 27.5 14.7474 26.6605 14.7474 25.625C14.7474 24.5895 13.9079 23.75 12.8724 23.75C11.8369 23.75 10.9974 24.5895 10.9974 25.625C10.9974 26.6605 11.8369 27.5 12.8724 27.5Z" fill="#FEFEFE" stroke="#FEFEFE" stroke-width="1.5" stroke-linecap="round" stroke-linejoin="round"/>
<path d="M7.24744 5C7.0391 4.16666 5.99744 2.5 3.49744 2.5M7.24744 5H28.4974L25.9974 18.75H9.74744L7.24744 5Z" stroke="#FEFEFE" stroke-width="1.5" stroke-linecap="round" stroke-linejoin="round"/>
<path d="M25.9974 18.75H9.74744H7.5359C5.30551 18.75 4.12244 19.7265 4.12244 21.25C4.12244 22.7735 5.30551 23.75 7.5359 23.75H25.3724" stroke="#FEFEFE" stroke-width="1.5" stroke-linecap="round" stroke-linejoin="round"/>
</svg>
