<svg width="183" height="182" viewBox="0 0 183 182" fill="none" xmlns="http://www.w3.org/2000/svg">
<g clip-path="url(#clip0_641_79)">
<path d="M125.625 62.5625C125.625 61.0541 126.224 59.6074 127.291 58.5408C128.357 57.4742 129.804 56.875 131.312 56.875H154.062C155.571 56.875 157.018 57.4742 158.084 58.5408C159.151 59.6074 159.75 61.0541 159.75 62.5625V73.9375C159.75 75.4459 159.151 76.8926 158.084 77.9592C157.018 79.0258 155.571 79.625 154.062 79.625H131.312C129.804 79.625 128.357 79.0258 127.291 77.9592C126.224 76.8926 125.625 75.4459 125.625 73.9375V62.5625Z" fill="#2F5214"/>
<path d="M23.25 22.75C17.2163 22.75 11.4298 25.1469 7.16332 29.4133C2.89687 33.6798 0.5 39.4663 0.5 45.5L0.5 136.5C0.5 142.534 2.89687 148.32 7.16332 152.587C11.4298 156.853 17.2163 159.25 23.25 159.25H159.75C165.784 159.25 171.57 156.853 175.837 152.587C180.103 148.32 182.5 142.534 182.5 136.5V45.5C182.5 39.4663 180.103 33.6798 175.837 29.4133C171.57 25.1469 165.784 22.75 159.75 22.75H23.25ZM171.125 45.5V102.375H11.875V45.5C11.875 42.4832 13.0734 39.5899 15.2067 37.4567C17.3399 35.3234 20.2332 34.125 23.25 34.125H159.75C162.767 34.125 165.66 35.3234 167.793 37.4567C169.927 39.5899 171.125 42.4832 171.125 45.5ZM159.75 147.875H23.25C20.2332 147.875 17.3399 146.677 15.2067 144.543C13.0734 142.41 11.875 139.517 11.875 136.5V125.125H171.125V136.5C171.125 139.517 169.927 142.41 167.793 144.543C165.66 146.677 162.767 147.875 159.75 147.875Z" fill="#2F5214"/>
</g>
<defs>
<clipPath id="clip0_641_79">
<rect width="182" height="182" fill="white" transform="translate(0.5)"/>
</clipPath>
</defs>
</svg>
