<svg width="183" height="182" viewBox="0 0 183 182" fill="none" xmlns="http://www.w3.org/2000/svg">
<path d="M170.044 91L130.232 36.6275C129.721 35.8714 129.036 35.2493 128.234 34.8138C127.432 34.3782 126.537 34.142 125.625 34.125H17.5625C16.0541 34.125 14.6074 34.7242 13.5408 35.7908C12.4742 36.8574 11.875 38.3041 11.875 39.8125V136.5C11.875 138.008 12.4742 139.455 13.5408 140.522C14.6074 141.588 16.0541 142.188 17.5625 142.188H29.7337C31.0435 147.007 33.9027 151.261 37.8703 154.295C41.8378 157.328 46.6933 158.971 51.6875 158.971C56.6817 158.971 61.5372 157.328 65.5047 154.295C69.4723 151.261 72.3315 147.007 73.6412 142.188H109.359C110.668 147.007 113.528 151.261 117.495 154.295C121.463 157.328 126.318 158.971 131.312 158.971C136.307 158.971 141.162 157.328 145.13 154.295C149.097 151.261 151.957 147.007 153.266 142.188H165.438C166.946 142.188 168.393 141.588 169.459 140.522C170.526 139.455 171.125 138.008 171.125 136.5V94.185C171.094 93.0387 170.717 91.9284 170.044 91ZM114.25 45.5H122.724L151.901 85.3125H114.25V45.5ZM51.6875 147.875C49.4377 147.875 47.2385 147.208 45.3679 145.958C43.4973 144.708 42.0393 142.932 41.1784 140.853C40.3174 138.775 40.0922 136.487 40.5311 134.281C40.97 132.074 42.0533 130.047 43.6442 128.457C45.235 126.866 47.2618 125.782 49.4683 125.344C51.6749 124.905 53.962 125.13 56.0405 125.991C58.119 126.852 59.8956 128.31 61.1455 130.18C62.3954 132.051 63.0625 134.25 63.0625 136.5C63.0625 139.517 61.8641 142.41 59.7308 144.543C57.5976 146.677 54.7043 147.875 51.6875 147.875ZM131.312 147.875C129.063 147.875 126.863 147.208 124.993 145.958C123.122 144.708 121.664 142.932 120.803 140.853C119.942 138.775 119.717 136.487 120.156 134.281C120.595 132.074 121.678 130.047 123.269 128.457C124.86 126.866 126.887 125.782 129.093 125.344C131.3 124.905 133.587 125.13 135.666 125.991C137.744 126.852 139.521 128.31 140.77 130.18C142.02 132.051 142.688 134.25 142.688 136.5C142.688 139.517 141.489 142.41 139.356 144.543C137.223 146.677 134.329 147.875 131.312 147.875ZM159.75 130.812H153.266C151.957 125.993 149.097 121.739 145.13 118.705C141.162 115.672 136.307 114.029 131.312 114.029C126.318 114.029 121.463 115.672 117.495 118.705C113.528 121.739 110.668 125.993 109.359 130.812H73.6412C72.3315 125.993 69.4723 121.739 65.5047 118.705C61.5372 115.672 56.6817 114.029 51.6875 114.029C46.6933 114.029 41.8378 115.672 37.8703 118.705C33.9027 121.739 31.0435 125.993 29.7337 130.812H23.25V45.5H102.875V96.6875H159.75V130.812Z" fill="#2F5214"/>
</svg>
