<svg width="29" height="28" viewBox="0 0 29 28" fill="none" xmlns="http://www.w3.org/2000/svg">
<path d="M28.0386 10.0689L19.3604 8.80763L15.481 0.942884C15.375 0.727552 15.2007 0.553235 14.9854 0.447278C14.4453 0.180677 13.7891 0.402845 13.519 0.942884L9.63965 8.80763L0.961422 10.0689C0.722164 10.103 0.503414 10.2158 0.335933 10.3867C0.133458 10.5948 0.0218856 10.8748 0.025731 11.1652C0.0295764 11.4555 0.148525 11.7324 0.356441 11.9351L6.63525 18.0567L5.15185 26.7007C5.11707 26.9018 5.13932 27.1086 5.21608 27.2977C5.29285 27.4867 5.42106 27.6505 5.58617 27.7704C5.75128 27.8904 5.94669 27.9616 6.15024 27.9761C6.35379 27.9907 6.55733 27.9478 6.73779 27.8526L14.5 23.7715L22.2622 27.8526C22.4741 27.9654 22.7202 28.003 22.9561 27.9619C23.5508 27.8594 23.9507 27.2954 23.8482 26.7007L22.3648 18.0567L28.6436 11.9351C28.8145 11.7676 28.9273 11.5488 28.9614 11.3096C29.0537 10.7114 28.6367 10.1577 28.0386 10.0689V10.0689ZM19.7227 17.1953L20.9566 24.3833L14.5 20.9927L8.04346 24.3867L9.27734 17.1987L4.05468 12.106L11.2734 11.0567L14.5 4.51808L17.7266 11.0567L24.9453 12.106L19.7227 17.1953Z" fill="#F7C850"/>
</svg>
