<svg width="24" height="24" viewBox="0 0 24 24" fill="none" xmlns="http://www.w3.org/2000/svg">
<path d="M2.88 18.054C4.25619 11.9647 7.19661 6.33961 11.411 1.73397C11.4859 1.65245 11.577 1.58737 11.6784 1.54285C11.7797 1.49833 11.8893 1.47534 12 1.47534C12.1107 1.47534 12.2203 1.49833 12.3216 1.54285C12.423 1.58737 12.5141 1.65245 12.589 1.73397C12.755 1.91397 12.893 2.06597 13.002 2.18897C16.9986 6.71085 19.7906 12.1673 21.12 18.054C18.979 18.505 16.78 18.801 14.536 18.928L12.447 23.106C12.4054 23.1889 12.3416 23.2587 12.2627 23.3074C12.1837 23.3561 12.0928 23.3819 12 23.3819C11.9072 23.3819 11.8163 23.3561 11.7373 23.3074C11.6584 23.2587 11.5946 23.1889 11.553 23.106L9.464 18.928C7.25046 18.8029 5.04953 18.5107 2.88 18.054ZM9.578 16.931L10.735 16.997L12 19.527L13.265 16.997L14.422 16.931C15.8377 16.8509 17.2485 16.6993 18.649 16.477C17.3222 11.9289 15.0572 7.70921 12 4.08997C8.94276 7.70921 6.67777 11.9289 5.351 16.477C6.746 16.699 8.156 16.851 9.578 16.931ZM12 15C11.2044 15 10.4413 14.6839 9.87868 14.1213C9.31607 13.5587 9 12.7956 9 12C9 11.2043 9.31607 10.4413 9.87868 9.87865C10.4413 9.31604 11.2044 8.99997 12 8.99997C12.7957 8.99997 13.5587 9.31604 14.1213 9.87865C14.6839 10.4413 15 11.2043 15 12C15 12.7956 14.6839 13.5587 14.1213 14.1213C13.5587 14.6839 12.7957 15 12 15ZM12 13C12.2652 13 12.5196 12.8946 12.7071 12.7071C12.8946 12.5195 13 12.2652 13 12C13 11.7348 12.8946 11.4804 12.7071 11.2929C12.5196 11.1053 12.2652 11 12 11C11.7348 11 11.4804 11.1053 11.2929 11.2929C11.1054 11.4804 11 11.7348 11 12C11 12.2652 11.1054 12.5195 11.2929 12.7071C11.4804 12.8946 11.7348 13 12 13Z" fill="black"/>
</svg>
