<svg width="30" height="30" viewBox="0 0 30 30" fill="none" xmlns="http://www.w3.org/2000/svg">
<path d="M15 0.9375C8.53781 0.9375 3.28125 6.195 3.28125 12.6562C3.28125 19.1175 8.53828 24.375 15 24.375C21.4622 24.375 26.7188 19.1175 26.7188 12.6562C26.7188 6.195 21.4617 0.9375 15 0.9375ZM15 22.0317C9.83016 22.0317 5.62453 17.8261 5.62453 12.6562C5.62453 7.48734 9.82969 3.28172 15 3.28172C20.1694 3.28172 24.3745 7.48734 24.3745 12.6562C24.3741 17.8261 20.1689 22.0317 15 22.0317Z" fill="black"/>
<path d="M11.9128 9.06422C12.3469 8.604 12.8658 8.23188 13.4409 7.96828C14.028 7.69858 14.6671 7.56097 15.3131 7.56516C16.1329 7.56516 16.8853 7.76062 17.5711 8.15156C18.2471 8.53387 18.8231 9.07068 19.252 9.71813L20.9226 8.46891C20.2879 7.60238 19.4633 6.89269 18.5118 6.39422C17.5453 5.88141 16.4784 5.625 15.3126 5.625C14.3522 5.625 13.4493 5.81062 12.6047 6.18281C11.779 6.53988 11.0292 7.05139 10.3954 7.68984C9.76265 8.33211 9.25746 9.08862 8.90669 9.91922C8.54154 10.7695 8.35919 11.6831 8.35919 12.6567C8.35919 13.6294 8.54154 14.542 8.90669 15.3947C9.25709 16.2249 9.76233 16.9809 10.3954 17.6222C11.0292 18.2611 11.779 18.7732 12.6047 19.1311C13.4498 19.5014 14.3526 19.6875 15.3126 19.6875C16.4784 19.6875 17.5448 19.4311 18.5118 18.9178C19.4638 18.4201 20.2886 17.7103 20.9226 16.8431L19.252 15.5958C18.8224 16.2423 18.2465 16.7785 17.5711 17.1609C16.8853 17.5514 16.1329 17.7469 15.3131 17.7469C14.667 17.7513 14.0279 17.6137 13.4409 17.3438C12.8657 17.0803 12.3468 16.7082 11.9128 16.2478C11.4778 15.7884 11.1318 15.2489 10.8754 14.6348C10.619 14.0208 10.4911 13.3603 10.4911 12.6567C10.4911 11.9517 10.619 11.2922 10.8754 10.6777C11.1318 10.0631 11.4778 9.52547 11.9128 9.06422Z" fill="black"/>
</svg>
