<svg width="30" height="30" viewBox="0 0 30 30" fill="none" xmlns="http://www.w3.org/2000/svg">
<path fill-rule="evenodd" clip-rule="evenodd" d="M7.5 15C7.5 14.7513 7.59877 14.5129 7.77459 14.3371C7.9504 14.1612 8.18886 14.0625 8.4375 14.0625H19.2994L15.2737 10.0387C15.0977 9.86268 14.9988 9.62392 14.9988 9.37496C14.9988 9.12601 15.0977 8.88725 15.2737 8.71121C15.4498 8.53518 15.6885 8.43628 15.9375 8.43628C16.1865 8.43628 16.4252 8.53518 16.6012 8.71121L22.2262 14.3362C22.3136 14.4233 22.3828 14.5268 22.4301 14.6407C22.4773 14.7545 22.5017 14.8767 22.5017 15C22.5017 15.1233 22.4773 15.2454 22.4301 15.3593C22.3828 15.4732 22.3136 15.5766 22.2262 15.6637L16.6012 21.2887C16.4252 21.4648 16.1865 21.5636 15.9375 21.5636C15.6885 21.5636 15.4498 21.4648 15.2737 21.2887C15.0977 21.1127 14.9988 20.8739 14.9988 20.625C14.9988 20.376 15.0977 20.1373 15.2737 19.9612L19.2994 15.9375H8.4375C8.18886 15.9375 7.9504 15.8387 7.77459 15.6629C7.59877 15.4871 7.5 15.2486 7.5 15Z" fill="black"/>
</svg>
