<svg width="30" height="30" viewBox="0 0 30 30" fill="none" xmlns="http://www.w3.org/2000/svg">
<path d="M3.74998 16.25H4.99998V25C4.99998 26.3788 6.12123 27.5 7.49998 27.5H22.5C23.8787 27.5 25 26.3788 25 25V16.25H26.25C26.4972 16.25 26.7388 16.1766 26.9443 16.0393C27.1498 15.9019 27.31 15.7067 27.4046 15.4783C27.4992 15.25 27.5239 14.9987 27.4757 14.7562C27.4275 14.5138 27.3085 14.2911 27.1337 14.1163L15.8837 2.86626C15.7677 2.75008 15.63 2.6579 15.4783 2.59501C15.3267 2.53213 15.1641 2.49976 15 2.49976C14.8358 2.49976 14.6733 2.53213 14.5216 2.59501C14.37 2.6579 14.2322 2.75008 14.1162 2.86626L2.86623 14.1163C2.69147 14.2911 2.57246 14.5138 2.52425 14.7562C2.47604 14.9987 2.50079 15.25 2.59538 15.4783C2.68997 15.7067 2.85014 15.9019 3.05565 16.0393C3.26117 16.1766 3.50279 16.25 3.74998 16.25ZM12.5 25V18.75H17.5V25H12.5ZM15 5.51751L22.5 13.0175V18.75L22.5012 25H20V18.75C20 17.3713 18.8787 16.25 17.5 16.25H12.5C11.1212 16.25 9.99998 17.3713 9.99998 18.75V25H7.49998V13.0175L15 5.51751Z" fill="black"/>
</svg>
