<svg width="64" height="64" viewBox="0 0 64 64" fill="none" xmlns="http://www.w3.org/2000/svg">
<path d="M18.137 21.824C12.492 23.373 9.04899 28.956 10.045 32.768C11.043 36.581 14.811 32.238 20.456 30.688C26.099 29.137 31.48 30.969 30.484 27.156C29.487 23.343 23.782 20.273 18.137 21.824Z" fill="black"/>
<path d="M13.768 20.047C15.469 19.415 15.686 15.63 14.78 13.078C13.874 10.528 11.76 8.97499 10.059 9.60899C8.35897 10.244 7.71497 12.826 8.62097 15.376C9.52697 17.927 12.066 20.682 13.768 20.047Z" fill="black"/>
<path d="M20.708 18.078C22.511 17.916 23.675 14.319 23.444 11.613C23.214 8.90899 21.565 6.84999 19.762 7.00899C17.959 7.17199 16.683 9.49499 16.914 12.199C17.146 14.903 18.903 18.24 20.708 18.078Z" fill="black"/>
<path d="M28.678 10.1639C26.869 10.1639 25.403 12.3639 25.403 15.0779C25.403 17.7939 26.87 21.2729 28.678 21.2729C30.488 21.2729 31.954 17.7939 31.954 15.0779C31.955 12.3629 30.488 10.1639 28.678 10.1639Z" fill="black"/>
<path d="M3.318 17.127C1.75 18.053 1.552 20.711 2.879 23.063C4.203 25.413 7.172 27.675 8.739 26.748C10.307 25.821 9.88 22.055 8.555 19.705C7.23 17.353 4.884 16.2 3.318 17.127Z" fill="black"/>
<path d="M45.865 44.529C40.22 42.978 34.513 46.049 33.517 49.861C32.519 53.674 37.902 51.842 43.546 53.393C49.191 54.943 52.958 59.286 53.954 55.473C54.952 51.661 51.508 46.079 45.865 44.529Z" fill="black"/>
<path d="M50.234 42.755C51.933 43.387 54.474 40.632 55.38 38.081C56.286 35.53 55.642 32.948 53.942 32.314C52.241 31.679 50.129 33.233 49.223 35.784C48.317 38.335 48.533 42.12 50.234 42.755Z" fill="black"/>
<path d="M43.295 40.782C45.098 40.944 46.856 37.608 47.086 34.904C47.316 32.2 46.043 29.876 44.24 29.714C42.437 29.554 40.789 31.614 40.556 34.319C40.326 37.024 41.492 40.62 43.295 40.782Z" fill="black"/>
<path d="M35.322 43.978C37.133 43.978 38.599 40.499 38.599 37.783C38.599 35.069 37.132 32.869 35.322 32.869C33.512 32.869 32.045 35.069 32.045 37.785C32.045 40.499 33.514 43.978 35.322 43.978Z" fill="black"/>
<path d="M60.683 39.832C59.115 38.905 56.771 40.058 55.447 42.409C54.124 44.76 53.696 48.526 55.261 49.453C56.829 50.38 59.798 48.118 61.122 45.768C62.446 43.417 62.249 40.759 60.683 39.832Z" fill="black"/>
</svg>
