<svg width="24" height="25" viewBox="0 0 24 25" fill="none" xmlns="http://www.w3.org/2000/svg">
<mask id="path-1-inside-1_743_1961" fill="white">
<path d="M3 17.5H21C21.55 17.5 22 17.95 22 18.5C22 19.05 21.55 19.5 21 19.5H3C2.45 19.5 2 19.05 2 18.5C2 17.95 2.45 17.5 3 17.5ZM2.5 13.07C2.86 13.28 3.32 13.15 3.53 12.79L4 11.97L4.48 12.8C4.69 13.16 5.15 13.28 5.51 13.08C5.87 12.87 5.99 12.42 5.79 12.06L5.3 11.22H6.25C6.66 11.22 7 10.88 7 10.47C7 10.06 6.66 9.71998 6.25 9.71998H5.3L5.77 8.89998C5.98 8.53998 5.86 8.07998 5.5 7.86998C5.32574 7.77298 5.12045 7.74797 4.92799 7.80028C4.73554 7.8526 4.57117 7.97811 4.47 8.14998L4 8.96998L3.53 8.14998C3.42883 7.97811 3.26446 7.8526 3.07201 7.80028C2.87955 7.74797 2.67426 7.77298 2.5 7.86998C2.14 8.07998 2.02 8.53998 2.23 8.89998L2.7 9.71998H1.75C1.34 9.71998 1 10.06 1 10.47C1 10.88 1.34 11.22 1.75 11.22H2.7L2.22 12.05C2.02 12.41 2.14 12.87 2.5 13.07ZM10.5 13.07C10.86 13.28 11.32 13.15 11.53 12.79L12 11.97L12.48 12.8C12.69 13.16 13.15 13.28 13.51 13.08C13.87 12.87 13.99 12.42 13.79 12.06L13.31 11.23H14.26C14.67 11.23 15.01 10.89 15.01 10.48C15.01 10.07 14.67 9.72998 14.26 9.72998H13.3L13.77 8.90998C13.8689 8.73715 13.896 8.53241 13.8455 8.33979C13.795 8.14718 13.671 7.98207 13.5 7.87998C13.4153 7.83073 13.3217 7.79864 13.2246 7.78555C13.1275 7.77246 13.0288 7.77863 12.9341 7.8037C12.8394 7.82877 12.7505 7.87226 12.6726 7.93167C12.5947 7.99109 12.5292 8.06527 12.48 8.14998L12 8.96998L11.53 8.14998C11.4811 8.06488 11.4159 7.99031 11.338 7.93059C11.2602 7.87087 11.1712 7.82719 11.0764 7.80208C10.9815 7.77697 10.8826 7.77093 10.7854 7.7843C10.6882 7.79767 10.5946 7.83019 10.51 7.87998C10.15 8.08998 10.03 8.54998 10.24 8.90998L10.71 9.72998H9.75C9.65198 9.72866 9.55468 9.74682 9.46374 9.78342C9.3728 9.82001 9.29004 9.87431 9.22026 9.94316C9.15049 10.012 9.09508 10.094 9.05727 10.1845C9.01946 10.2749 8.99999 10.372 9 10.47C9 10.88 9.34 11.22 9.75 11.22H10.7L10.22 12.05C10.02 12.41 10.14 12.87 10.5 13.07V13.07ZM23 10.47C23 10.06 22.66 9.71998 22.25 9.71998H21.3L21.77 8.89998C21.8689 8.72715 21.896 8.52241 21.8455 8.3298C21.795 8.13718 21.671 7.97207 21.5 7.86998C21.4153 7.82072 21.3217 7.78864 21.2246 7.77555C21.1275 7.76246 21.0288 7.76862 20.9341 7.7937C20.8394 7.81877 20.7505 7.86226 20.6726 7.92167C20.5947 7.98109 20.5292 8.05527 20.48 8.13998L20 8.96998L19.53 8.14998C19.4811 8.06488 19.4159 7.99031 19.338 7.93059C19.2602 7.87087 19.1712 7.82719 19.0764 7.80208C18.9815 7.77697 18.8826 7.77093 18.7854 7.7843C18.6882 7.79767 18.5946 7.83019 18.51 7.87998C18.15 8.08998 18.03 8.54998 18.24 8.90998L18.71 9.72998H17.76C17.6613 9.72772 17.5631 9.74517 17.4711 9.78131C17.3792 9.81745 17.2954 9.87155 17.2247 9.94045C17.1539 10.0094 17.0976 10.0917 17.059 10.1826C17.0204 10.2735 17.0004 10.3712 17 10.47C17 10.88 17.34 11.22 17.75 11.22H18.7L18.22 12.05C18.1703 12.1351 18.1382 12.2292 18.1254 12.3269C18.1126 12.4246 18.1194 12.5239 18.1455 12.6189C18.1716 12.7139 18.2164 12.8027 18.2773 12.8802C18.3381 12.9576 18.4139 13.0222 18.5 13.07C18.86 13.28 19.32 13.15 19.53 12.79L20 11.97L20.48 12.8C20.69 13.16 21.15 13.28 21.51 13.08C21.87 12.87 21.99 12.42 21.79 12.06L21.31 11.23H22.26C22.66 11.22 23 10.88 23 10.47Z"/>
</mask>
<path d="M3 17.5H21C21.55 17.5 22 17.95 22 18.5C22 19.05 21.55 19.5 21 19.5H3C2.45 19.5 2 19.05 2 18.5C2 17.95 2.45 17.5 3 17.5ZM2.5 13.07C2.86 13.28 3.32 13.15 3.53 12.79L4 11.97L4.48 12.8C4.69 13.16 5.15 13.28 5.51 13.08C5.87 12.87 5.99 12.42 5.79 12.06L5.3 11.22H6.25C6.66 11.22 7 10.88 7 10.47C7 10.06 6.66 9.71998 6.25 9.71998H5.3L5.77 8.89998C5.98 8.53998 5.86 8.07998 5.5 7.86998C5.32574 7.77298 5.12045 7.74797 4.92799 7.80028C4.73554 7.8526 4.57117 7.97811 4.47 8.14998L4 8.96998L3.53 8.14998C3.42883 7.97811 3.26446 7.8526 3.07201 7.80028C2.87955 7.74797 2.67426 7.77298 2.5 7.86998C2.14 8.07998 2.02 8.53998 2.23 8.89998L2.7 9.71998H1.75C1.34 9.71998 1 10.06 1 10.47C1 10.88 1.34 11.22 1.75 11.22H2.7L2.22 12.05C2.02 12.41 2.14 12.87 2.5 13.07ZM10.5 13.07C10.86 13.28 11.32 13.15 11.53 12.79L12 11.97L12.48 12.8C12.69 13.16 13.15 13.28 13.51 13.08C13.87 12.87 13.99 12.42 13.79 12.06L13.31 11.23H14.26C14.67 11.23 15.01 10.89 15.01 10.48C15.01 10.07 14.67 9.72998 14.26 9.72998H13.3L13.77 8.90998C13.8689 8.73715 13.896 8.53241 13.8455 8.33979C13.795 8.14718 13.671 7.98207 13.5 7.87998C13.4153 7.83073 13.3217 7.79864 13.2246 7.78555C13.1275 7.77246 13.0288 7.77863 12.9341 7.8037C12.8394 7.82877 12.7505 7.87226 12.6726 7.93167C12.5947 7.99109 12.5292 8.06527 12.48 8.14998L12 8.96998L11.53 8.14998C11.4811 8.06488 11.4159 7.99031 11.338 7.93059C11.2602 7.87087 11.1712 7.82719 11.0764 7.80208C10.9815 7.77697 10.8826 7.77093 10.7854 7.7843C10.6882 7.79767 10.5946 7.83019 10.51 7.87998C10.15 8.08998 10.03 8.54998 10.24 8.90998L10.71 9.72998H9.75C9.65198 9.72866 9.55468 9.74682 9.46374 9.78342C9.3728 9.82001 9.29004 9.87431 9.22026 9.94316C9.15049 10.012 9.09508 10.094 9.05727 10.1845C9.01946 10.2749 8.99999 10.372 9 10.47C9 10.88 9.34 11.22 9.75 11.22H10.7L10.22 12.05C10.02 12.41 10.14 12.87 10.5 13.07V13.07ZM23 10.47C23 10.06 22.66 9.71998 22.25 9.71998H21.3L21.77 8.89998C21.8689 8.72715 21.896 8.52241 21.8455 8.3298C21.795 8.13718 21.671 7.97207 21.5 7.86998C21.4153 7.82072 21.3217 7.78864 21.2246 7.77555C21.1275 7.76246 21.0288 7.76862 20.9341 7.7937C20.8394 7.81877 20.7505 7.86226 20.6726 7.92167C20.5947 7.98109 20.5292 8.05527 20.48 8.13998L20 8.96998L19.53 8.14998C19.4811 8.06488 19.4159 7.99031 19.338 7.93059C19.2602 7.87087 19.1712 7.82719 19.0764 7.80208C18.9815 7.77697 18.8826 7.77093 18.7854 7.7843C18.6882 7.79767 18.5946 7.83019 18.51 7.87998C18.15 8.08998 18.03 8.54998 18.24 8.90998L18.71 9.72998H17.76C17.6613 9.72772 17.5631 9.74517 17.4711 9.78131C17.3792 9.81745 17.2954 9.87155 17.2247 9.94045C17.1539 10.0094 17.0976 10.0917 17.059 10.1826C17.0204 10.2735 17.0004 10.3712 17 10.47C17 10.88 17.34 11.22 17.75 11.22H18.7L18.22 12.05C18.1703 12.1351 18.1382 12.2292 18.1254 12.3269C18.1126 12.4246 18.1194 12.5239 18.1455 12.6189C18.1716 12.7139 18.2164 12.8027 18.2773 12.8802C18.3381 12.9576 18.4139 13.0222 18.5 13.07C18.86 13.28 19.32 13.15 19.53 12.79L20 11.97L20.48 12.8C20.69 13.16 21.15 13.28 21.51 13.08C21.87 12.87 21.99 12.42 21.79 12.06L21.31 11.23H22.26C22.66 11.22 23 10.88 23 10.47Z" fill="black" stroke="#4D9416" stroke-width="2" mask="url(#path-1-inside-1_743_1961)"/>
</svg>
