<svg width="183" height="182" viewBox="0 0 183 182" fill="none" xmlns="http://www.w3.org/2000/svg">
<path d="M131.313 63.7V59.7188C131.313 41.8742 104.439 28.4375 68.75 28.4375C33.0609 28.4375 6.1875 41.8742 6.1875 59.7188V88.1563C6.1875 103.015 24.8141 114.816 51.6875 118.371V122.281C51.6875 140.126 78.5609 153.563 114.25 153.563C149.939 153.563 176.813 140.126 176.813 122.281V93.8438C176.813 79.1273 158.755 67.3258 131.313 63.7ZM165.438 93.8438C165.438 103.228 143.541 113.75 114.25 113.75C111.62 113.75 108.989 113.679 106.359 113.466C121.715 107.92 131.313 98.8203 131.313 88.1563V75.1461C152.57 78.3453 165.438 86.9477 165.438 93.8438ZM51.6875 106.783V89.9336C57.3457 90.6607 63.0453 91.017 68.75 91C74.4547 91.017 80.1543 90.6607 85.8125 89.9336V106.783C80.1681 107.662 74.4625 108.09 68.75 108.063C63.0375 108.09 57.3319 107.662 51.6875 106.783V106.783ZM119.938 78.132V88.1563C119.938 94.1281 111.122 100.527 97.1875 104.437V87.8008C106.359 85.5969 114.108 82.2555 119.938 78.132V78.132ZM68.75 39.8125C98.0406 39.8125 119.938 50.3344 119.938 59.7188C119.938 69.1031 98.0406 79.625 68.75 79.625C39.4594 79.625 17.5625 69.1031 17.5625 59.7188C17.5625 50.3344 39.4594 39.8125 68.75 39.8125ZM17.5625 88.1563V78.132C23.3922 82.2555 31.1414 85.5969 40.3125 87.8008V104.437C26.3781 100.527 17.5625 94.1281 17.5625 88.1563ZM63.0625 122.281V119.295L68.75 119.438C71.5464 119.438 74.2479 119.366 76.8547 119.224C79.6984 120.22 82.6844 121.073 85.8125 121.855V138.562C71.8781 134.652 63.0625 128.253 63.0625 122.281V122.281ZM97.1875 140.908V123.988C102.845 124.73 108.544 125.11 114.25 125.125C119.955 125.142 125.654 124.786 131.313 124.059V140.908C120.001 142.614 108.499 142.614 97.1875 140.908V140.908ZM142.688 138.562V121.926C151.859 119.722 159.608 116.38 165.438 112.257V122.281C165.438 128.253 156.622 134.652 142.688 138.562V138.562Z" fill="#2F5214"/>
</svg>
